<?xml version="1.0" encoding="UTF-8"?>
<svg width="49px" height="48px" viewBox="0 0 49 48" version="1.1" xmlns="http://www.w3.org/2000/svg" xmlns:xlink="http://www.w3.org/1999/xlink">
    <!-- Generator: sketchtool 60.1 (101010) - https://sketch.com -->
    <title>2D3C4DF2-595C-4B87-9932-4227DD23002C</title>
    <desc>Created with sketchtool.</desc>
    <defs>
        <path d="M19.3044,8.5308 L31.2014,1.4568 L42.7624,8.4128 L42.7624,23.4208 C42.7624,23.9648 42.3204,24.4068 41.7764,24.4068 L34.1674,24.4068 L34.1674,15.4828 C34.1674,14.7498 33.5714,14.1528 32.8374,14.1528 L29.5754,14.1528 C28.8434,14.1528 28.2464,14.7498 28.2464,15.4828 L28.2464,24.4068 L20.2904,24.4068 C19.7474,24.4068 19.3044,23.9648 19.3044,23.4208 L19.3044,8.5308 Z M40.3294,1.5628 L40.3294,5.3798 L38.1434,4.0638 L38.1294,1.5768 L40.3294,1.5628 Z M32.8234,24.4068 L29.5894,24.4068 L29.5754,15.4978 L32.8234,15.4828 L32.8234,24.4068 Z M10.2596,24.8493 C11.3456,24.8493 12.2296,25.7333 12.2296,26.8193 L12.2296,26.8193 L12.2296,29.5723 C13.5186,29.4413 14.7296,29.2993 15.8216,29.1683 C17.9276,28.9153 19.7406,28.7013 20.8286,28.7323 C22.2176,28.7763 23.4106,29.2713 24.6746,29.7953 C25.3436,30.0713 26.0306,30.3563 26.7626,30.5803 C27.3086,30.7473 27.9006,30.8823 28.5266,31.0273 C29.7036,31.2983 30.9126,31.5773 31.8726,32.0723 C32.9736,32.6383 33.5756,33.5363 33.4856,34.4723 C33.3936,35.4283 32.5976,36.2143 31.3566,36.5743 C28.9526,37.1943 27.0356,36.6643 21.9146,35.2493 L21.9146,35.2493 L21.1616,35.0413 C21.0776,35.0203 20.9636,35.0843 20.9416,35.1663 C20.9156,35.2613 20.9716,35.3603 21.0666,35.3863 L21.0666,35.3863 L21.8196,35.5953 C26.8496,36.9853 28.9326,37.5623 31.3786,36.9353 L31.3786,36.9353 L31.5346,36.8953 C32.1656,36.7183 32.8176,36.4753 33.5666,36.1403 C37.9516,34.1773 41.1076,33.0333 43.2116,32.6423 C45.2596,32.2563 46.8626,33.3183 47.4856,34.4683 C48.1046,35.6103 47.8826,36.8673 46.8786,37.9183 L46.8786,37.9183 C46.2826,38.5413 43.9896,39.5543 40.5586,41.0293 C39.3656,41.5423 38.1406,42.0683 36.9686,42.5973 C35.5276,43.2453 34.2166,43.9073 33.0606,44.4913 C31.4746,45.2913 30.2326,45.9183 29.4506,46.1163 C29.2886,46.1573 29.1016,46.1773 28.8936,46.1773 C27.3936,46.1773 24.7656,45.1773 21.9716,44.0563 C20.8026,43.5873 19.8046,43.1863 19.2346,43.0463 C18.9676,42.9793 18.0376,42.8693 14.8076,42.8693 C13.8826,42.8693 12.9736,42.8783 12.2296,42.8893 L12.2296,42.8893 L12.2296,46.0293 C12.2296,47.1163 11.3456,48.0003 10.2596,48.0003 L10.2596,48.0003 L1.9696,48.0003 C0.8836,48.0003 0.000599999999,47.1163 0.000599999999,46.0293 L0.000599999999,46.0293 L0.000599999999,26.8193 C0.000599999999,25.7333 0.8836,24.8493 1.9696,24.8493 L1.9696,24.8493 Z M10.2596,26.1693 L1.9696,26.1693 C1.6106,26.1693 1.3206,26.4613 1.3206,26.8193 L1.3206,26.8193 L1.3206,46.0293 C1.3206,46.3883 1.6106,46.6793 1.9696,46.6793 L1.9696,46.6793 L10.2596,46.6793 C10.6176,46.6793 10.9096,46.3883 10.9096,46.0293 L10.9096,46.0293 L10.9096,26.8193 C10.9096,26.4613 10.6176,26.1693 10.2596,26.1693 L10.2596,26.1693 Z M20.7866,30.0513 C19.8066,30.0243 18.0316,30.2323 15.9966,30.4763 C14.8236,30.6183 13.5586,30.7703 12.2346,30.9033 L12.2346,30.9033 L12.2346,41.5683 C12.9786,41.5583 13.8866,41.5483 14.8076,41.5483 C18.6806,41.5483 19.3366,41.7113 19.5516,41.7643 C20.2106,41.9273 21.1986,42.3243 22.4486,42.8263 C24.1506,43.5093 28.1056,45.1013 29.1266,44.8373 C29.7676,44.6753 31.0716,44.0163 32.4546,43.3183 C33.6346,42.7233 34.9586,42.0543 36.4266,41.3933 C37.6066,40.8623 38.8376,40.3323 40.0216,39.8233 C42.1996,38.8873 45.4696,37.4823 45.9236,37.0063 C46.5316,36.3703 46.6666,35.7273 46.3256,35.0973 C45.9236,34.3553 44.8566,33.6773 43.4536,33.9403 C41.4526,34.3113 38.3956,35.4253 34.1046,37.3453 C33.2956,37.7073 32.5846,37.9723 31.9306,38.1543 L31.9306,38.1543 L31.8276,38.1863 C31.7666,38.2033 31.7106,38.2153 31.6546,38.2253 C28.9176,38.9273 26.5826,38.2813 21.4666,36.8673 L21.4666,36.8673 L20.7146,36.6593 C20.3286,36.5523 20.0076,36.3023 19.8096,35.9543 C19.6126,35.6063 19.5626,35.2013 19.6686,34.8153 C19.7756,34.4293 20.0256,34.1083 20.3716,33.9103 C20.7206,33.7123 21.1236,33.6623 21.5136,33.7693 L21.5136,33.7693 L22.2666,33.9773 C27.2806,35.3623 28.9706,35.8293 30.9546,35.3193 C31.6806,35.1063 32.1336,34.7373 32.1716,34.3453 C32.2076,33.9723 31.8606,33.5513 31.2686,33.2453 C30.4546,32.8263 29.3276,32.5663 28.2386,32.3153 C27.5806,32.1633 26.9676,32.0233 26.3776,31.8423 C25.5836,31.6003 24.8676,31.3033 24.1736,31.0163 C23.0206,30.5383 21.9356,30.0883 20.7866,30.0513 Z M30.8604,0.0948 C31.0744,-0.0322 31.3374,-0.0322 31.5514,0.0968 L31.5514,0.0968 L36.7994,3.2548 L36.7994,1.5628 C36.7994,0.8288 37.3964,0.2328 38.1294,0.2328 L38.1294,0.2328 L40.3444,0.2328 C41.0774,0.2328 41.6744,0.8288 41.6744,1.5628 L41.6744,1.5628 L41.6744,6.1888 L47.5034,9.6958 C47.6584,9.7878 47.7664,9.9348 47.8094,10.1098 C47.8534,10.2838 47.8254,10.4648 47.7344,10.6178 C47.5424,10.9348 47.1294,11.0378 46.8104,10.8478 L46.8104,10.8478 L44.1074,9.2218 L44.1074,23.4208 C44.1074,24.7058 43.0614,25.7518 41.7764,25.7518 L41.7764,25.7518 L20.2904,25.7518 C19.0054,25.7518 17.9594,24.7058 17.9594,23.4208 L17.9594,23.4208 L17.9594,9.3298 L15.4044,10.8498 C15.3004,10.9118 15.1814,10.9448 15.0604,10.9448 C14.8244,10.9448 14.6024,10.8188 14.4824,10.6158 C14.3904,10.4608 14.3644,10.2808 14.4084,10.1058 C14.4524,9.9318 14.5624,9.7858 14.7174,9.6938 L14.7174,9.6938 Z" id="path-1"></path>
    </defs>
    <g id="Asset-Artboard-Page" stroke="none" stroke-width="1" fill="none" fill-rule="evenodd">
        <g id="icons/products/red/A-car-home/a44-home-liability" transform="translate(0.382023, 0.000000)">
            <g>
                <polygon id="Rectangle-path" fill-opacity="0" fill="#FFFFFF" fill-rule="nonzero" points="-5.68434189e-14 0 48 0 48 48 -5.68434189e-14 48"></polygon>
                <mask id="mask-2" fill="white">
                    <use xlink:href="#path-1"></use>
                </mask>
                <use id="a44-home-liability" fill="#C5281C" xlink:href="#path-1"></use>
                <polygon id="Color-Style" fill="#C5281C" mask="url(#mask-2)" points="0 0 48 0 48 48 0 48"></polygon>
            </g>
        </g>
    </g>
</svg>